<svg width="94" height="94" viewBox="0 0 94 94" fill="none" xmlns="http://www.w3.org/2000/svg">
<path fill-rule="evenodd" clip-rule="evenodd" d="M26.8555 9.02599C32.4781 8.49526 40.7264 7.8335 47.0003 7.8335C53.2743 7.8335 61.5225 8.49526 67.1451 9.02599C72.4494 9.52668 76.5672 13.7482 76.962 19.003C77.5204 26.4344 78.3337 38.8059 78.3337 47.9272C78.3337 54.9196 77.8562 63.8084 77.3837 70.9054C77.1468 74.4633 76.91 77.5882 76.7323 79.8242C76.6435 80.9423 76.5694 81.8387 76.5175 82.4563L76.4571 83.1666L76.4358 83.4117L76.4354 83.4159C76.4354 83.4161 76.4354 83.4163 73.4147 83.154L76.4354 83.4159C76.3467 84.4251 75.7533 85.3229 74.8563 85.8045C73.9593 86.2862 72.8787 86.2877 71.9803 85.8084L47.4784 72.7379C47.1798 72.5786 46.8208 72.5786 46.5222 72.7379L22.0203 85.8084C21.122 86.2877 20.0414 86.2862 19.1444 85.8045C18.2473 85.3229 17.654 84.4255 17.5652 83.4163L20.586 83.154C17.5652 83.4163 17.5653 83.4165 17.5652 83.4163L17.5436 83.1666L17.4832 82.4563C17.4313 81.8387 17.3572 80.9423 17.2683 79.8242C17.0907 77.5882 16.8538 74.4633 16.617 70.9054C16.1445 63.8084 15.667 54.9196 15.667 47.9272C15.667 38.8059 16.4802 26.4344 17.0386 19.003C17.4335 13.7482 21.5512 9.52668 26.8555 9.02599ZM23.2332 78.3223L43.6535 67.429C45.7436 66.3141 48.257 66.3141 50.3471 67.429L70.7675 78.3223C70.9314 76.2178 71.1319 73.5188 71.3324 70.5077C71.8033 63.4353 72.2691 54.7108 72.2691 47.9272C72.2691 39.0532 71.4726 26.8813 70.9143 19.4516C70.7377 17.1003 68.9092 15.2453 66.5716 15.0246C60.9638 14.4953 52.9633 13.8591 47.0003 13.8591C41.0374 13.8591 33.0369 14.4953 27.4291 15.0246C25.0914 15.2453 23.263 17.1003 23.0863 19.4516C22.528 26.8813 21.7315 39.0532 21.7315 47.9272C21.7315 54.7108 22.1974 63.4353 22.6683 70.5077C22.8687 73.5188 23.0692 76.2178 23.2332 78.3223Z" fill="#030D45"/>
</svg>
